<?xml version="1.0" encoding="UTF-8"?>
<svg id="Calque_1" data-name="Calque 1" xmlns="http://www.w3.org/2000/svg" viewBox="0 0 508.16 582.84">
  <path d="m508.14,309.89c0,56.74-.03,113.48.02,170.23.01,14.08-4.3,27.05-10.25,39.47-7.9,16.5-19.72,29.97-34.34,40.84-19.02,14.15-40.72,21.95-64.25,22.06-97.91.46-195.82.46-293.73.06-15.87-.06-30.87-5.33-45.3-12.67-17.62-8.96-31.41-21.84-42.45-37.67C6.65,516.18,0,498.26,0,478.33.01,366.34.05,254.35,0,142.36c-.01-24.96,9.93-45.46,26.7-63.41,11.7-12.52,25.4-21.39,41.83-26.05,2.31-.66,2.92-1.94,3.08-4.11.81-10.83,4.61-20.47,11.43-28.99C95.17,4.65,111.02-1.42,130,.79c24.41,2.84,36.48,19.69,44.99,40.44,1.22,2.97-1.98,7.5,2.38,8.91,3.09,1,6.76.26,10.17.26,45.86,0,91.73-.05,137.59.1,4.94.02,7.23-.75,8.28-6.51,2.65-14.54,9.72-26.85,22.31-35.34,21.87-14.75,54.48-10.62,70.52,12.44,5.62,8.07,9.19,16.56,9.81,26.27.23,3.61,1.28,4.64,5.22,5.91,17.11,5.52,31.82,15.29,43.4,29.17,7.12,8.55,13.41,17.77,17.31,28.34,3.14,8.51,6.13,17.1,6.13,26.33.03,57.6.01,115.19.02,172.79Zm-40.92-1.19c0-53.11-.27-106.23.13-159.33.16-21.16-9.21-36.96-24.62-50.1-1.39-1.18-3.23-2.73-5.12-1.72-1.7.91-.89,3.12-.88,4.72.1,8.93.71,18.14-2.41,26.48-6.29,16.8-17.35,28.8-35.44,34.29-22.53,6.83-49.66-5.75-59.91-27.4-5.5-11.62-6.1-23.73-5.57-36.04.25-5.82-1.42-7.72-7.34-7.7-47.99.18-95.98.19-143.97-.03-5.85-.03-7.3,1.99-6.86,7.43,1.24,15.34-1.1,29.89-10.05,42.98-5.76,8.43-13.08,15.32-22.33,18.93-15.75,6.14-31.71,5.18-46.31-3.85-11.2-6.93-18.75-16.99-22.42-29.92-2.42-8.52-3.19-17.07-2.67-25.83.16-2.68-.75-5.59-3.83-3.13-6.12,4.9-12.11,10.01-16.5,16.79-8.19,12.62-10.17,26.58-10.17,41.21.02,101.1-.07,202.21-.08,303.31,0,12.52.68,24.68,5.96,36.69,5.6,12.75,14.22,22.72,24.68,30.84,14.14,10.98,31.09,14.14,48.89,14.09,90.86-.28,181.72-.33,272.59-.45,23.88-.03,43.34-9.6,58.17-28,10.44-12.95,16.33-27.64,16.2-44.91-.41-53.11-.15-106.22-.14-159.33Zm-67.75-226.98s-.07,0-.1,0c0-10.66-.03-21.33.01-31.99.02-6.01-3.64-9.36-8.71-10.87-12.64-3.75-20.65,2.22-20.84,15.49-.27,18.55-.25,37.1-.29,55.65,0,2.53.43,4.96,1.39,7.44,2.73,7.06,8.22,9.81,17.94,8.45,6.07-.85,10.44-5.63,10.55-12.2.18-10.66.05-21.32.05-31.98Zm-261.24,0c0-9.8-.59-19.65.18-29.39.62-7.83-5.63-14.16-13.92-14.82-8.03-.64-15.51,4.92-15.71,13.15-.52,20.86-.98,41.78-.07,62.61.38,8.81,5.34,13.6,15.35,13.09,8.65-.45,14.11-6.07,14.15-14.59.05-10.01.01-20.03.02-30.04Z"/>
  <path d="m254.24,210.4c37.76,0,75.51,0,113.27,0,21.66,0,38.18,9.06,48.22,28.45,3.16,6.1,5.37,12.81,5.37,20.01-.04,69.54.05,139.08-.06,208.61-.02,11.04-4.41,20.01-14.79,25.14-6.88,3.4-14.06,2.35-19.53-2.67-6.06-5.56-7.92-13.54-5.45-20.77,2.68-7.83.72-16.04,1.25-24.07.4-6.16.15-12.36.11-18.54-.05-9.13-3.84-11.76-12.69-12.99-15.55-2.17-25.99,4.22-36.4,15.24-16.47,17.41-32.96,35.07-52.14,49.64-15.12,11.49-32.67,14.07-51.04,10.32-15.15-3.09-26.79-12.01-37.34-23.02-11.18-11.66-23.15-22.56-34.8-33.76-5.43-5.23-11.02-10.3-16.33-15.63-3.59-3.61-8.08-3.54-11.81-1.87-3.47,1.56-6.15,4.69-6.03,9.63.34,13.43.11,26.87.12,40.31,0,1.69.23,3.27.89,4.94,3.37,8.52,1.6,16.68-4.24,20.75-8.99,6.26-16.18,6.03-24.1-1.04-5.16-4.61-8.27-10.12-8.49-17.43-2.11-70.59-.75-141.2-.88-211.79-.04-21.58,11.19-36.8,30.62-45.53,6.48-2.91,13.81-3.91,21.1-3.9,38.4.02,76.79,0,115.19,0v-.03Zm-10.74,245.65c5.87-.92,11.91-1,16.69-6.06,8.07-8.56,16.64-16.65,25.11-24.81,31.02-29.88,62.22-59.58,92.96-89.74,3.44-3.37,7.55-8.1,4.73-14.55-3.87-8.84-7.73-11.66-15.71-12.1-8.58-.46-13.46,5.53-18.64,10.37-13.78,12.85-26.96,26.34-40.52,39.42-15.98,15.42-32.09,30.7-48.17,46.01-1.97,1.88-4.08,3.6-6.11,5.41-6.13,5.46-9.08,5.29-14.85-.23-14.72-14.08-29.59-28-44.3-42.08-6.9-6.61-13.43-13.62-20.42-20.14-4.42-4.12-9.71-7.7-16.04-6.23-7.6,1.76-13.87,5.72-16.19,14.08-2.17,7.84.5,14.15,5.96,19.41,11.71,11.27,23.77,22.18,35.43,33.5,12.41,12.05,24.97,23.92,37.05,36.32,6.08,6.24,12.97,12.28,23.01,11.42Zm-9.26-163.77c0-8.73,0-17.47,0-26.2,0-10.11-6.9-17.29-16.96-17.32-24.92-.07-49.85-.07-74.77.02-9.53.04-18.12,8.16-18.28,17.68-.27,16.61,0,33.23-.12,49.85-.03,4.6,1.52,4.67,4.66,2.25,6.59-5.07,13.63-8.59,22.09-10.22,23.13-4.46,41.36,2.69,55.45,21.18,4.31,5.65,9.41,7.54,15.92,5.44,7.47-2.41,11.96-7.79,12-14.56.05-9.37.01-18.75,0-28.12Zm93.12-43.53c-12.14,0-24.28-.02-36.42,0-10.81.02-18,6.16-18.23,16.75-.4,18.31-.09,36.63-.17,54.95-.02,3.6,1.83,6.61,3.26,9.49,1.94,3.9,7.47,3.13,12.29-1.59,13.93-13.63,27.81-27.31,41.53-41.14,7.95-8.01,16.52-14.93,28.13-16.3,5.89-.69,11.9-.34,17.85-.51,5.53-.16,7.92-3.38,6.59-8.82-1.95-7.99-7.93-12.77-16.49-12.83-12.78-.1-25.56-.03-38.34-.02Z"/>
</svg>